<?xml version="1.0" encoding="UTF-8"?>
<svg id="Capa_1" xmlns="http://www.w3.org/2000/svg" version="1.1" xmlns:xlink="http://www.w3.org/1999/xlink" viewBox="0 0 800 891.4">
  <!-- Generator: Adobe Illustrator 29.2.1, SVG Export Plug-In . SVG Version: 2.1.0 Build 116)  -->
  <defs>
    <style>
      .st0 {
        fill: url(#Degradado_sin_nombre_6);
      }

      .st1 {
        fill: url(#Degradado_sin_nombre_5);
      }

      .st2 {
        fill: #1d222a;
      }

      .st3 {
        fill: #4abcef;
      }

      .st4 {
        fill: #0d6bb9;
      }

      .st5 {
        fill: #18a2e6;
      }

      .st6 {
        fill: #fff;
      }

      .st7 {
        fill: url(#Degradado_sin_nombre_4);
      }

      .st8 {
        fill: #eae9e9;
      }

      .st9 {
        fill: url(#Degradado_sin_nombre_2);
      }

      .st10 {
        fill: #36baf2;
      }

      .st11 {
        fill: #03478c;
      }

      .st12 {
        fill: #72d2f5;
      }

      .st13 {
        fill: #033d81;
      }

      .st14 {
        fill: #0784d2;
      }

      .st15 {
        fill: url(#Degradado_sin_nombre_7);
      }

      .st16 {
        fill: #fffffc;
      }

      .st17 {
        fill: url(#Degradado_sin_nombre_3);
      }

      .st18 {
        fill: #0792de;
      }

      .st19 {
        fill: #045bab;
      }

      .st20 {
        fill: #cac7c7;
      }

      .st21 {
        fill: #2d3239;
      }
    </style>
    <linearGradient id="Degradado_sin_nombre_6" data-name="Degradado sin nombre 6" x1="660.5" y1="634.3" x2="85.9" y2="926.3" gradientTransform="translate(0 1200.7) scale(1 -1)" gradientUnits="userSpaceOnUse">
      <stop offset="0" stop-color="#006fc2"/>
      <stop offset="1" stop-color="#09abf0"/>
    </linearGradient>
    <linearGradient id="Degradado_sin_nombre_2" data-name="Degradado sin nombre 2" x1="412.8" y1="1025.3" x2="338" y2="1199.6" gradientTransform="translate(0 1200.7) scale(1 -1)" gradientUnits="userSpaceOnUse">
      <stop offset="0" stop-color="#019ce0"/>
      <stop offset="1" stop-color="#31b8f9"/>
    </linearGradient>
    <linearGradient id="Degradado_sin_nombre_3" data-name="Degradado sin nombre 3" x1="556.1" y1="1131.8" x2="556.5" y2="1139.9" gradientTransform="translate(0 1200.7) scale(1 -1)" gradientUnits="userSpaceOnUse">
      <stop offset="0" stop-color="#0473c7"/>
      <stop offset="1" stop-color="#078ddf"/>
    </linearGradient>
    <linearGradient id="Degradado_sin_nombre_4" data-name="Degradado sin nombre 4" x1="670.7" y1="1122.7" x2="646.1" y2="1141.4" gradientTransform="translate(0 1200.7) scale(1 -1)" gradientUnits="userSpaceOnUse">
      <stop offset="0" stop-color="#0176cb"/>
      <stop offset="1" stop-color="#0e95de"/>
    </linearGradient>
    <linearGradient id="Degradado_sin_nombre_5" data-name="Degradado sin nombre 5" x1="69.2" y1="1066.3" x2="112.4" y2="1057.9" gradientTransform="translate(0 1200.7) scale(1 -1)" gradientUnits="userSpaceOnUse">
      <stop offset="0" stop-color="#0d8fdc"/>
      <stop offset="1" stop-color="#2ab3ee"/>
    </linearGradient>
    <linearGradient id="Degradado_sin_nombre_7" data-name="Degradado sin nombre 7" x1="423.2" y1="1051.2" x2="422.2" y2="994.2" gradientTransform="translate(0 1200.7) scale(1 -1)" gradientUnits="userSpaceOnUse">
      <stop offset="0" stop-color="#02377e"/>
      <stop offset="1" stop-color="#0261b5"/>
    </linearGradient>
  </defs>
  <ellipse class="st20" cx="401.1" cy="829.3" rx="329" ry="31.8"/>
  <path class="st0" d="M236.4,31.8c66.5-1.4,132.9-1.7,199.4-1.1,26.4.1,54,0,80.4,1.9,3.4.2,6.2,3.2,8.5,5.5l9,11.1c23.6,1.9,47.1,4.3,70.5,7.1,7.5.9,26.9,3,33.7,5l4.8-14.1c11.4-.4,21.6-2.5,29.7,7.2,5.9,14.4,4.2,20.7-1.5,35.2-5.6,14.5-10.1,20.7,7.6,24.1,5,6.7,1.8,29.7,2.8,40-5.3,5.4-6.9,6.6-13.3,10.8-5.7,5.4-13.2,21.6-17.2,29.5-1.3,2.7-3.9,8.1-5.5,10.3-2.7,3.1-4.4,5.3-7.5,8.1-2.4,11.9-3,21.4-3.9,33.5l-12.1,199.1-3.9,65.8c-.5,9-1.1,26.6-2.5,34.9-.2,23.4-2.9,47.6-4,70.9-.4,8.7-1.9,26.1-.9,34.2l1.2-2.5c1.1-2.5,1.9-5.9,5-6.5,13.7-3,38.2-5.8,41.5,13,6.7,38.4,10.6,131.4-4.6,166-82.2,10.8-149.4,13.8-196.2,14.4-20.4.3-40.5.2-138.5-2.3-69.5-1.7-127-3.3-166.9-4.5-9.4-14.8-22.9-40.4-28.4-74.8-4.1-25.7-2.4-47.6,0-62.8,1.7-5.8,3.7-11.8,6-18.1,4.2-11.5,8.9-22,13.6-31.3l5.7,2.1c.6-5.2-1.5-29.1-1.9-35.5-1.9-24.1-3.6-48.3-5.2-72.4l-15.2-236.6-4.1-63.9c-.5-8.1-.9-17.2-1.7-25.4-.3-3.2-3.5-4.2-6-5.5-6.3-5.5-12.1-26.1-14.9-35l-1.9-3.8c-4.1-2.4-16.8-5.4-22.1-7.1-7.4-7.1-8.5-39.9-1.4-44.4,8.3-2.8,22.3-.2,26.1-6.8-1.7-11.4,0-20,9.8-26.7,18.4-7.6,9.7-13.1,17-16.8,17.9-9.1,53.2-11.7,74-14.1l8.7-8,.4-1.2c.7-.7,1.4-1.4,2.1-2.1,8.3-7.9,12-6.4,23.6-6.2Z"/>
  <path class="st9" d="M236.4,31.8c66.5-1.4,132.9-1.7,199.4-1.1,26.4.1,54,0,80.4,1.9,3.4.2,6.2,3.2,8.5,5.5l9,11.1c23.6,1.9,47.1,4.3,70.5,7.1,7.5.9,26.9,3,33.7,5l4.8-14.1c11.4-.4,21.6-2.5,29.7,7.2,5.9,14.4,4.2,20.7-1.5,35.2-5.6,14.5-10.1,20.7,7.6,24.1-14.3,1.3-33.8,7.7-50,3.4l.7-.8c-10.7-1.4-40.2-.7-52.2-.7h-102.4c0,0-298.5-.1-298.5-.1-31.3,0-61.7,1.5-93.1,1.2-2.7-.6-5.8-1.9-8.4-2.9,8.3-2.8,22.3-.2,26.1-6.8-1.7-11.4,0-20,9.8-26.7,18.4-7.6,9.7-13.1,17-16.8,17.9-9.1,53.2-11.7,74-14.1l8.7-8,.4-1.2c.7-.7,1.4-1.4,2.1-2.1,8.3-7.9,12-6.4,23.6-6.2Z"/>
  <path class="st6" d="M372.9,318.7c0,45.7-37,82.7-82.7,82.7s-82.7-37-82.7-82.7,37-82.7,82.7-82.7,82.7,37,82.7,82.7ZM483.8,236c-45.7,0-82.7,37-82.7,82.7s37,82.7,82.7,82.7,82.7-37,82.7-82.7-37-82.7-82.7-82.7Z"/>
  <path class="st5" d="M236.4,31.8c66.5-1.4,132.9-1.7,199.4-1.1,26.4.1,54,0,80.4,1.9,3.4.2,6.2,3.2,8.5,5.5l9,11.1c23.6,1.9,47.1,4.3,70.5,7.1,7.5.9,26.9,3,33.7,5l-4.1,2.1c-2.2.5-5.3,1.4-7.4,1.7l.2,1.3-1.6.7,2.7,1.7.3,2.8c-1.9,2-4,2.5-6.6,3.5-3.8.8-28.6-2.5-32.6-4.5-23-1.5-45.9-3.3-69-3.3-25.2,1.9-78.1.4-104.4.4h-207.7c2.1-3.4-1.3-17.2,2.4-26.4l.4-1.2c.7-.7,1.4-1.4,2.1-2.1,8.3-7.9,12-6.4,23.6-6.2Z"/>
  <path class="st18" d="M236.4,31.8c66.5-1.4,132.9-1.7,199.4-1.1,26.4.1,54,0,80.4,1.9,3.4.2,6.2,3.2,8.5,5.5l-8.4-.6c-90.7-1.7-195.9-3.7-286.5-.8,1.6-3.7,1.4-2.6,6.6-4.8Z"/>
  <path class="st17" d="M520,67.2c-12.7-1.5-27-.4-41-1.7l-.2-.6c4.9.9,31.5-.5,36-3.2v-6.1c.1,0,1.8-.5,1.8-.5,2,2,1.3,3.8,1.3,7.4l1.8,1.4c5,.6,8.2,1.3,13.1,0-1-3.6-8.3.4-13.3-2.9l2.2-1.6c7.1,2.1,6.9,2.7,11.2-2.8,18.3-2.3,49.2,3.8,68.7,3.1,6.9.8,26.8,2.2,32,3.7-2.2.5-5.3,1.4-7.4,1.7l.2,1.3-1.6.7,2.7,1.7.3,2.8c-1.9,2-4,2.5-6.6,3.5-3.8.8-28.6-2.5-32.6-4.5-23-1.5-45.9-3.3-69-3.3Z"/>
  <path class="st3" d="M533.1,56.5c18.3-2.3,49.2,3.8,68.7,3.1,6.9.8,26.8,2.2,32,3.7-2.2.5-5.3,1.4-7.4,1.7-13.5-1.6-88.8-5.2-93.3-8.5Z"/>
  <path class="st12" d="M210.8,40.1c.7-.7,1.4-1.4,2.1-2.1,8.3-7.9,12-6.4,23.6-6.2-5.1,2.2-5,1.1-6.6,4.8,90.6-2.9,195.8-.9,286.5.8l-.6,1.5c-74.8,3-151.5-1.9-226.5,0-11.1.3-69.3,2.9-74.5,0l-3.9,1.1Z"/>
  <path class="st14" d="M210.8,40.1c.7-.7,1.4-1.4,2.1-2.1,8.3-7.9,12-6.4,23.6-6.2-5.1,2.2-5,1.1-6.6,4.8-5.3.6-10,1-15.2,2.3l-3.9,1.1Z"/>
  <path class="st19" d="M601.8,59.6c-16.7-4.3-61.9-6.1-68.5-9l.3-1.5c23.6,1.9,47.1,4.3,70.5,7.1,7.5.9,26.9,3,33.7,5l-4.1,2.1c-5.2-1.5-25.1-2.9-32-3.7Z"/>
  <path class="st14" d="M642.8,47.1c11.4-.4,21.6-2.5,29.7,7.2,5.9,14.4,4.2,20.7-1.5,35.2-5.6,14.5-10.1,20.7,7.6,24.1-14.3,1.3-33.8,7.7-50,3.4l.7-.8c-10.7-1.4-40.2-.7-52.2-.7h-102.4c0,0-298.5-.1-298.5-.1-31.3,0-61.7,1.5-93.1,1.2-2.7-.6-5.8-1.9-8.4-2.9,8.3-2.8,22.3-.2,26.1-6.8l1.8,2.7c13.5.8,27.6-1.1,41.1-1.1l144.1-.7c82.5-.2,165.8,1.1,248.2-1.1,17.9-.5,62.9,1.1,77.1-2.3l.9-3.6-2.6-7.7c.2-.4,3.1-3,3.9-3.9.4-4.2.8-6.2,2.3-10.1,9,.4,24.6,5.8,28.7,4.2l-2.6-.7c-1.7-4.3-2.6-5.9-2.6-10.6l2.2-2.1c-3.3-5.9-10.3-4-16.6-3.6l-.2-1.3c2.1-.3,5.2-1.2,7.4-1.7l4.1-2.1,4.8-14.1Z"/>
  <path class="st4" d="M617.5,79.1c9,.4,24.6,5.8,28.7,4.2,8.7,5.8,12.6,14.8,8.3,24.6-4.2,3.4-4.9,2.6-11.6,2.1-4,1.8-4.6,1.8-8.9.9-4.2-.3-12.8-3.7-17.4-5.1-2.1-2.1-1.9-2.3-2.7-5.1l-2.6-7.7c.2-.4,3.1-3,3.9-3.9.4-4.2.8-6.2,2.3-10.1Z"/>
  <path class="st19" d="M634,111c-4.2-4.8-3.9-3.1-5.1-8.9,1.6-7.1,4.9-10.4,12.4-8.8,5,5.3,4.3,10.3,1.6,16.8-4,1.8-4.6,1.8-8.9.9Z"/>
  <path class="st7" d="M642.8,47.1c11.4-.4,21.6-2.5,29.7,7.2.8,9.9-6.5,30.6-11.3,38.9l-2.4,1.4c-5.3-9,1.1-10.9-9.9-17.8-2.6-1.6-4.2-4.4-5.7-7-3.3-5.9-10.3-4-16.6-3.6l-.2-1.3c2.1-.3,5.2-1.2,7.4-1.7l4.1-2.1,4.8-14.1Z"/>
  <path class="st18" d="M110.6,80.1l2.4,1.8,1.1,1.8c5.8,1.4,6.9.9,12.3-.8l3.1,1c.3,3.7.5,5.2,2.1,8.6l-1.2,1.9c-3.8,0-4.4.1-8.1-.7l-.8.7,4.7,3.3c4.6-.9,4.7-1.8,7.6,0l.7,4.4,2.8,1.4c0-1.8,0-2.7-.1-4.5,7.6-1.5,12.1-3.5,19.2-.7l.6,1.7c-4.9,3.1-8.4,3.2-11.6,5.2,22.3,4.7,8.3-9.1,23.8-9.9,46.9-2.4,93.9-1.1,140.8-1l193.5-.4c29,0,58.1-.8,87,.2,9.3.3,14.1,7.1,20.7-.9l2.6,7.7-.9,3.6c-14.2,3.4-59.1,1.8-77.1,2.3-82.4,2.2-165.7.9-248.2,1.1l-144.1.7c-13.5,0-27.6,1.9-41.1,1.1l-1.8-2.7c-1.7-11.4,0-20,9.8-26.7Z"/>
  <path class="st10" d="M201.6,49.2l8.7-8c-3.7,9.2-.3,23-2.4,26.4h207.7c26.3,0,79.2,1.5,104.4-.4,23.1,0,46,1.8,69,3.3-9.7,5.6-93.4,3.3-111.3,3.4l-166.4.5c-41.9-.3-84-1.3-125.9-.8-19,.2-38.8,3.2-57.7,5.1-4.8.5-10.4.9-14.6,3.3l-2.4-1.8c18.4-7.6,9.7-13.1,17-16.8,17.9-9.1,53.2-11.7,74-14.1Z"/>
  <path class="st5" d="M201.6,49.2l8.7-8c-3.7,9.2-.3,23-2.4,26.4-10.2.2-18.4.9-28.3,1.4-5.1,1.8-25.7,2.5-34.1,3.9-7.3,1.4-11.6,1.7-17.9,5.7-4.8.5-10.4.9-14.6,3.3l-2.4-1.8c18.4-7.6,9.7-13.1,17-16.8,17.9-9.1,53.2-11.7,74-14.1Z"/>
  <path class="st14" d="M201.6,49.2l8.7-8c-3.7,9.2-.3,23-2.4,26.4-10.2.2-18.4.9-28.3,1.4l-.3-.8c2.8-3.9,15.9,1,24-7.5,1-3.9,1.3-2.2-.3-5.2l-3.7-.5c-6.2,1.7-11.6,1.2-18,2.1-18.7,2.5-34.4,3.3-52.3,9.6l-1.1,2.5,1,2.3c6.7,2,10.4.8,16.6,1.4-7.3,1.4-11.6,1.7-17.9,5.7-4.8.5-10.4.9-14.6,3.3l-2.4-1.8c18.4-7.6,9.7-13.1,17-16.8,17.9-9.1,53.2-11.7,74-14.1Z"/>
  <path class="st12" d="M199.2,55.1l-.6,1.5c-8.4,1.9-63.3,11-69.7,10.1,18-6.3,33.6-7.2,52.3-9.6,6.4-.8,11.8-.4,18-2.1Z"/>
  <path class="st12" d="M626.7,66.3c6.2-.3,13.3-2.3,16.6,3.6l-2.2,2.1c0,4.7,1,6.4,2.6,10.6l2.6.7c-4.2,1.6-19.7-3.8-28.7-4.2-2.8.1-7.6,1-9.7,1-18.2.5-36.9-3.3-55.3-3.4-109.9-.3-219.9,1.2-329.8,0-14-.2-60.7-2.2-69.6,5.4-1.1,4.2.3,5.8,2.4,10.2l-1,1.6c-4.5.7-6.8,1.4-11.3.2l-2.2-2.2v-1.1c0-4,.2-4.5-1-8.1-5.3-4.1-19.5-.5-25.9,1.1l-1.1-1.8c4.2-2.4,9.8-2.9,14.6-3.3,18.9-1.9,38.7-4.9,57.7-5.1,41.9-.5,84,.5,125.9.8l166.4-.5c18,0,101.6,2.2,111.3-3.4,3.9,2,28.8,5.3,32.6,4.5,2.6-1,4.7-1.5,6.6-3.5l-.3-2.8-2.7-1.7,1.6-.7Z"/>
  <path class="st4" d="M626.7,66.3c6.2-.3,13.3-2.3,16.6,3.6l-2.2,2.1c0,4.7,1,6.4,2.6,10.6-5.9-2.8-14.9-4.8-22.1-7.7,2.6-1,4.7-1.5,6.6-3.5l-.3-2.8-2.7-1.7,1.6-.7Z"/>
  <path class="st5" d="M76.1,158.1c-7.4-7.1-8.5-39.9-1.4-44.4,2.6,1,5.7,2.3,8.4,2.9,31.5.3,61.9-1.2,93.1-1.2h298.5s102.4.1,102.4.1c12,0,41.5-.7,52.2.7l-.7.8-2.9.5c-.3,4.2-.9,28.6-2.8,29.8-4.2,2.8-19.7,3.1-25.5,3.5-97.8-1.3-195.5-1.9-293.3-1.7-39.7.2-100.2-.7-139.3,2.3-16.4.5-34.2,1.6-50.3,1.9-9.8.6-30.5,1.2-38.5,4.9Z"/>
  <path class="st12" d="M76.1,158.1c-7.4-7.1-8.5-39.9-1.4-44.4,2.6,1,5.7,2.3,8.4,2.9,31.5.3,61.9-1.2,93.1-1.2h298.5s102.4.1,102.4.1c12,0,41.5-.7,52.2.7l-.7.8-2.9.5-319.9.7c-37.3.2-75.3-.4-112.5,1.8-10.3.6-58-1.6-62.6,2.2-.9,7.8-1.7,14.7,1.7,21.9,5.7,5,11.1,3.3,19.5,3.1-12,.9-23.1,1.8-35.1,3.7l-2.3,2.3c-9.8.6-30.5,1.2-38.5,4.9Z"/>
  <path class="st1" d="M76.1,158.1c-7.4-7.1-8.5-39.9-1.4-44.4,2.6,1,5.7,2.3,8.4,2.9l-6.3.8c3.7,2.7,31.4,3,37.8,3.4-.1,7.6-1.6,24.8,2.4,30.2l-2.3,2.3c-9.8.6-30.5,1.2-38.5,4.9Z"/>
  <path class="st21" d="M611.9,648.1c1.1-2.5,1.9-5.9,5-6.5,13.7-3,38.2-5.8,41.5,13,6.7,38.4,10.6,131.4-4.6,166l-5.2,7.4c-.8.5-1.6,1.1-2.4,1.6-12.8,7.9-33.4,6.7-41.9-7.7-2.4-6.7-3.4-13.3-4.7-20.2-.5-7.4-.7-9.7.6-16.9,0-6,.9-12.2,1.3-18.2,2.8-38.9,4.9-77.2,9.2-116l1.2-2.5Z"/>
  <path class="st2" d="M611.9,648.1c1.7.5,5.5,1,5.8,2.8,5.3,29.3,2,60.8,3.6,90.6,1.3,24.6,4.5,46-1.2,70.5-2.9,3.5-3,3.8-7.1,5.4-8.2-9-9.3-21.8-10.3-33.3-.3,1.9-.8,7.1-1.8,8.5l-1-3.7,1.3,3.5.8-3.6-2.1-.9.2-3.1c0-6,.9-12.2,1.3-18.2,2.8-38.9,4.9-77.2,9.2-116l1.2-2.5Z"/>
  <path class="st15" d="M678.6,113.6c5,6.7,1.8,29.7,2.8,40-5.3,5.4-6.9,6.6-13.3,10.8-5.7,5.4-13.2,21.6-17.2,29.5-1.3,2.7-3.9,8.1-5.5,10.3-2.7,3.1-4.4,5.3-7.5,8-2.4,11.9-3,21.4-3.9,33.5-6.5-9.6,2.7-64-1.4-70.3-.2,4.6.8,8.7-1.4,11-1.5-2.5-1.3-2.9-1.7-5.7-2.8,4.5-2.6,54.9-7.6,66.5,0-6.6-.1-13.3-.4-19.9,0-10.8,4-39.1,1.4-45.7-1.2-.7-3.7-.3-5.5-.2-1.1,2.7-1.8,4-3.6,6.2-5.9-2.8-2-9-9.1-15-12.8-2.7-44.9-4-59.3-2.5-3,.3-5.2,5.4-6.9,8.4-7.9-1.7,3.7-21.9-9.1-24.1-5.1,2.2-2.8,7-5.4,6.7-25.1-2.3-49.8,1-74.7,1.3l-163.7,1.7c-10.5.2-27.7-1-38.3.2-3.6,2.7-6.7,5-9.2,6.8-7.2-1.3.5-1.3-5.2-4.4l-3.3,1.9c-.3-5.2.2-9.2-2.9-13.1l-2.2-.3c-4.8,5.8-3.5,10.7-3.2,18.3-4.7-3.3-5.5-4.6-8.8-9-1.5-5.1-2-4.3-7.1-8.2l2.5-.5c-3.8-3.1-36.2-3.6-42.9-4.6,39-3,99.6-2.1,139.3-2.3,97.8-.2,195.5.4,293.3,1.7,5.7-.4,21.3-.7,25.5-3.5,1.9-1.3,2.6-25.6,2.8-29.8l2.9-.5c16.2,4.3,35.7-2.1,50-3.4Z"/>
  <path class="st4" d="M678.6,113.6c5,6.7,1.8,29.7,2.8,40-21.4-.6-65.5-.2-84-2.8,5.7-.4,21.3-.7,25.5-3.5,1.9-1.3,2.6-25.6,2.8-29.8l2.9-.5c16.2,4.3,35.7-2.1,50-3.4Z"/>
  <path class="st4" d="M646.3,166.9c.3-2.9.2-2.8,1.9-5.1,7.1-2.5,14.4-3.7,19.9,2.6-5.7,5.4-13.2,21.6-17.2,29.5-1.3,2.7-3.9,8.1-5.5,10.3-2.6.4-2.2,1.3-5.5,2.6-3.7-6.6,2.7-32.7,6.4-39.8Z"/>
  <path class="st19" d="M646.3,166.9c.3-2.9.2-2.8,1.9-5.1,7.1-2.5,14.4-3.7,19.9,2.6-5.7,5.4-13.2,21.6-17.2,29.5-1.5-6.3,3.4-10.4-2-25.8l-2.6-1.2Z"/>
  <path class="st8" d="M601.5,787.9c2.6,13.7,4.7,26.8,9.3,40l-23.3-.4c10.6-18.4,7.6-20.6,14-39.7Z"/>
  <path class="st4" d="M542.9,191c-3.1,3.1-4.3,5.3-7.9,5.9-2.6-9.8,8.2-20.4,19.9-15.9-8.5,2.2-8.6,1.1-12,9.9Z"/>
  <path class="st13" d="M164.8,151.4c6.7,1,39.1,1.5,42.9,4.6l-2.5.5c5.1,4,5.6,3.1,7.1,8.2-9.8-1.6-13.9-3.3-23.7,0-6.9-1.4-9.9,0-17,.7-14.6,4.5-32.6-.9-43.2,14.2-5.4,7.7-.3,20-4.4,24.6-2.4-1.5-1.8-.7-3.1-2.9l-4,2.3-2,.4c-6.3-5.5-12.1-26.1-14.9-35l-1.9-3.8c-4.1-2.4-16.8-5.4-22.1-7.1,8-3.7,28.7-4.2,38.5-4.9,16.1-.3,33.9-1.4,50.3-1.9Z"/>
  <path class="st19" d="M100,169c1.4-4.7.3-3.6,3.6-6.2,4.6-.6,5.5-.9,9.6,1.2,4.5,4.8,4.8,5.6,6.7,11.9l.9.2c.3-1.8.7-4,.8-5.7,5.9-5.3,44.7-7.9,50.1-5-14.6,4.5-32.6-.9-43.2,14.2-5.4,7.7-.3,20-4.4,24.6-2.4-1.5-1.8-.7-3.1-2.9l-4,2.3-2,.4c-6.3-5.5-12.1-26.1-14.9-35Z"/>
  <path class="st14" d="M111.6,196.1c-2.4-8-9.6-21.4-7.3-29.3l2.6-.9c4.9,1.4,6.6,3.8,10.2,7.4l2.4,19.4-7.8,3.3Z"/>
  <path class="st14" d="M119.4,192.8l1.5,8.6-4,2.3c-2-2.2-3.7-5.1-5.4-7.6l7.8-3.3Z"/>
  <path class="st11" d="M121.6,170.5c-.2-4.2-.7-6.8,1.3-10.4,7.5-4.3,70.5-4,82.3-3.6,5.1,4,5.6,3.1,7.1,8.2-9.8-1.6-13.9-3.3-23.7,0-6.9-1.4-9.9,0-17,.7-5.4-2.9-44.1-.3-50.1,5Z"/>
  <path class="st19" d="M188.6,164.8c9.9-3.3,13.9-1.6,23.7,0,3.3,4.4,4.1,5.7,8.8,9,0,2.7-.1,2.5-.8,5.1h-1.9c-3.3-3.5-5-5.9-7.8-9.7-15.7-1-22.8,3.6-42.8,2,8.3-8,13.6-.6,20.6-6.4Z"/>
  <path class="st4" d="M155.4,716.8l6.7,11.8c.6,7.7,1.6,19.4,1.1,26.9-4.4-4.6-2.5-9.4-6.3-17.3-.9-7.4-1.2-13.9-1.5-21.3Z"/>
  <path class="st18" d="M184.2,757.9c2,2.1,5.4,26.8,5.7,31.1l-2,4.2c-8.2-11.7-3.1-19.2-5-32.4-.2-1.7-.2-.8,1.2-2.9Z"/>
  <g>
    <path class="st2" d="M315.1,348c9-8,13.8-19.7,13-31.7-1.3-20.2-17.9-36-38.2-36.4-20.3-.4-37.4,14.9-39.4,35-2,20.2,11.7,38.5,31.7,42.2,11.8,2.2,24-1.2,32.9-9.2Z"/>
    <path class="st16" d="M268.8,290.5c15.8-.4,15.9,7.6,7.9,18.4-14.1.1-16.4-8.1-7.9-18.4Z"/>
  </g>
  <g>
    <path class="st2" d="M469.4,280.8c21-4.2,41.4,9.3,45.7,30.3,4.3,21-9.2,41.4-30.1,45.8-21,4.4-41.6-9.2-45.9-30.2-4.3-21,9.3-41.6,30.3-45.8Z"/>
    <path class="st16" d="M454.7,292.3c3.6.7,3.9.9,7.3,2.6,5.4,7.4.6,10.6-5.3,15.3-4-.5-4.4-.7-7.7-3-3.5-7.4-.9-10.6,5.7-14.9Z"/>
  </g>
  <path class="st21" d="M155.2,648.1c-1.1-2.5-1.9-5.9-5-6.5-13.7-3-38.2-5.8-41.5,13-6.7,38.4-10.6,131.4,4.6,166l5.2,7.4c.8.5,1.6,1.1,2.4,1.6,12.8,7.9,33.4,6.7,41.9-7.7,2.4-6.7,3.4-13.3,4.7-20.2.5-7.4.7-9.7-.6-16.9,0-6-.9-12.2-1.3-18.2-2.8-38.9-4.9-77.2-9.2-116l-1.2-2.5Z"/>
  <path class="st2" d="M155.2,648.1c-1.7.5-5.5,1-5.8,2.8-5.3,29.3-2,60.8-3.6,90.6-1.3,24.6-4.5,46,1.2,70.5,2.9,3.5,3,3.8,7.1,5.4,8.2-9,9.3-21.8,10.3-33.3.3,1.9.8,7.1,1.8,8.5l1-3.7-1.3,3.5-.8-3.6,2.1-.9-.2-3.1c0-6-.9-12.2-1.3-18.2-2.8-38.9-4.9-77.2-9.2-116l-1.2-2.5Z"/>
  <path class="st8" d="M169.1,787.9c-2.7,14.2-4.8,27.7-9.7,41.4l24.1-.4c-10.9-19-7.9-21.3-14.5-41Z"/>
</svg>